HIERARCHY
ROOT root
{
	OFFSET	0	13.1	24.9
	CHANNELS 6  Xposition Yposition Zposition Xrotation Yrotation Zrotation
	JOINT spine_1
	{
		OFFSET	0	9.99999	0
		CHANNELS 3  Xrotation Yrotation Zrotation
		JOINT spine_2
		{
			OFFSET	0	112	-10
			CHANNELS 3  Xrotation Yrotation Zrotation
			JOINT spine_3
			{
				OFFSET	0	206.5	19.3
				CHANNELS 3  Xrotation Yrotation Zrotation
				JOINT spine_4
				{
					OFFSET	0	110.4	14.6
					CHANNELS 3  Xrotation Yrotation Zrotation
					JOINT neck_1
					{
						OFFSET	0	71.8	-50.3
						CHANNELS 3  Xrotation Yrotation Zrotation
						JOINT neck_2
						{
							OFFSET	0	86.2	-25.8
							CHANNELS 3  Xrotation Yrotation Zrotation
							JOINT head_ee
							{
								OFFSET	0	179.8	-8.7
								CHANNELS 3  Xrotation Yrotation Zrotation
								End Site
								{
									OFFSET	1	0	0
								}
							}
						}
					}
					JOINT left_clavicle
					{
						OFFSET	-43.2	22.4	-70.8
						CHANNELS 3  Xrotation Yrotation Zrotation
						JOINT left_shoulder
						{
							OFFSET	-93.9	-5.79999	48.7
							CHANNELS 3  Xrotation Yrotation Zrotation
							JOINT left_elbow
							{
								OFFSET	-291.4	-30.8	15.2
								CHANNELS 3  Xrotation Yrotation Zrotation
								JOINT left_lowarm_twist
								{
									OFFSET	-110.7	-3.89999	13.6
									CHANNELS 3  Xrotation Yrotation Zrotation
									JOINT left_hand
									{
										OFFSET	-110.7	-3.89999	13.6
										CHANNELS 3  Xrotation Yrotation Zrotation
										JOINT left_ee
										{
											OFFSET	-80.8	-5.10001	12.1
											CHANNELS 3  Xrotation Yrotation Zrotation
											End Site
											{
												OFFSET	1	0	0
											}
										}
									}
								}
							}
						}
					}
					JOINT right_clavicle
					{
						OFFSET	43.2	22.4	-70.8
						CHANNELS 3  Xrotation Yrotation Zrotation
						JOINT right_shoulder
						{
							OFFSET	93.9	-5.79999	48.7
							CHANNELS 3  Xrotation Yrotation Zrotation
							JOINT right_elbow
							{
								OFFSET	291.4	-30.8	15.2
								CHANNELS 3  Xrotation Yrotation Zrotation
								JOINT right_lowarm_twist
								{
									OFFSET	110.7	-3.89999	13.6
									CHANNELS 3  Xrotation Yrotation Zrotation
									JOINT right_hand
									{
										OFFSET	110.7	-3.89999	13.6
										CHANNELS 3  Xrotation Yrotation Zrotation
										JOINT right_ee
										{
											OFFSET	80.8	-5.10001	12.1
											CHANNELS 3  Xrotation Yrotation Zrotation
											End Site
											{
												OFFSET	1	0	0
											}
										}
									}
								}
							}
						}
					}
				}
			}
		}
	}
	JOINT left_hip
	{
		OFFSET	-82.8	-127.5	0.300001
		CHANNELS 3  Xrotation Yrotation Zrotation
		JOINT left_knee
		{
			OFFSET	-28.2	-396.7	2.2
			CHANNELS 3  Xrotation Yrotation Zrotation
			JOINT left_ankle
			{
				OFFSET	-11.7	-411.3	35.4
				CHANNELS 3  Xrotation Yrotation Zrotation
				JOINT left_toes
				{
					OFFSET	0	-60	-88.6
					CHANNELS 3  Xrotation Yrotation Zrotation
					JOINT left_foot_ee
					{
						OFFSET	-22.5	-16.5	-42.2
						CHANNELS 3  Xrotation Yrotation Zrotation
						End Site
						{
							OFFSET	1	0	0
						}
					}
				}
			}
		}
	}
	JOINT right_hip
	{
		OFFSET	82.8	-127.5	0.300001
		CHANNELS 3  Xrotation Yrotation Zrotation
		JOINT right_knee
		{
			OFFSET	28.2	-396.7	2.2
			CHANNELS 3  Xrotation Yrotation Zrotation
			JOINT right_ankle
			{
				OFFSET	11.7	-411.3	35.4
				CHANNELS 3  Xrotation Yrotation Zrotation
				JOINT right_toes
				{
					OFFSET	0	-60	-88.6
					CHANNELS 3  Xrotation Yrotation Zrotation
					JOINT right_foot_ee
					{
						OFFSET	22.5	-16.5	-42.2
						CHANNELS 3  Xrotation Yrotation Zrotation
						End Site
						{
							OFFSET	1	0	0
						}
					}
				}
			}
		}
	}
}
MOTION
Frames: 15
Frame Time: 0.02
2573.59 705.243 -1088.96 -18.0911 52.8599 14.9413 4.17081 -0.166499 0.465766 4.17091 -0.195799 0.454228 4.1693 -0.256846 0.422718 4.1691 -0.186863 0.457976 -10.2762 16.5788 4.00927 -10.5531 28.6287 8.22951 -0.0 0.0 -0.0 -1.8545 4.22661 -2.93356 -24.1917 -15.3352 81.0702 0.741674 -20.1735 0.131937 -5.03774 -0.204507 0.610424 -0.502078 11.1685 1.41713 -0.0 0.0 -0.0 11.9314 13.3319 -24.0884 -11.3075 25.6027 -55.6324 1.64138 39.1113 -0.583074 -23.1534 1.36245 -2.60803 -2.63884 -0.589529 17.6311 0.0 0.0 0.0 32.2955 -16.876 -6.0448 2.84184 -0.127416 -0.417398 -3.80931 26.7828 0.591828 -17.415 0.0 0.0 -0.0 0.0 -0.0 2.55894 6.75273 3.15407 -22.9476 -0.248998 -3.48921 36.1323 15.4834 4.82261 -9.51236 0.0 0.0 0.0 0.0 0.0 
2547.49 702.724 -1092.52 -17.0522 51.6556 14.4727 4.06388 -0.204666 0.26287 4.06389 -0.220979 0.249314 4.06292 -0.253791 0.215823 4.06292 -0.21652 0.253195 -8.04253 16.7173 3.20212 -8.13198 29.0318 6.89955 -0.0 0.0 -0.0 -2.02861 3.70329 -3.34109 -22.1211 -14.4287 81.959 0.773984 -20.9772 0.143292 -4.48156 -0.179299 0.543931 -0.55659 11.1363 1.05687 -0.0 0.0 -0.0 11.6225 13.2355 -23.3893 -10.835 24.9998 -56.7582 1.43357 35.3783 -0.457234 -23.1502 1.36219 -2.60771 -2.78994 -3.20999 17.3769 0.0 0.0 0.0 31.7128 -17.0083 -5.93382 2.19399 -0.0965457 -0.322797 -7.94687 27.8717 1.25098 -17.5966 0.0 0.0 -0.0 0.0 -0.0 2.93897 6.66257 3.19871 -23.5304 -0.237041 -3.57783 35.9557 13.8661 4.75627 -9.39754 0.0 0.0 0.0 0.0 0.0 
2522.88 705.741 -1099.1 -18.156 51.0799 15.6054 4.17553 -0.142265 0.157182 4.17553 -0.151978 0.14781 4.17514 -0.170978 0.125347 4.17515 -0.149036 0.150777 -10.2835 17.1918 5.98098 -10.5002 28.4839 10.2725 -0.0 0.0 -0.0 -1.36973 2.29726 -2.31449 -19.2485 -14.7843 79.6629 0.787716 -21.3162 0.148246 -4.80751 -0.193994 0.582929 -0.493166 11.2697 1.51641 -0.0 0.0 -0.0 11.7089 12.9458 -23.5915 -12.6605 24.2937 -57.7588 1.27309 32.2363 -0.367911 -23.9212 1.42507 -2.68391 -2.56846 -2.26264 16.3151 0.0 0.0 0.0 32.0559 -17.1059 -6.02586 -0.815416 0.0327157 0.120858 -4.56862 29.5441 0.723058 -16.3416 0.0 0.0 -0.0 0.0 -0.0 2.92941 6.6144 3.42314 -24.4446 -0.216466 -3.71661 36.963 13.5052 4.8426 -9.83517 0.0 0.0 0.0 0.0 0.0 
2496.62 708.312 -1104.62 -17.9963 50.5655 15.8036 4.49271 -0.152577 0.0456031 4.4927 -0.15517 0.0358018 4.49261 -0.158552 0.0148541 4.49264 -0.154216 0.0397081 -9.4082 17.3171 6.60082 -9.51765 28.1074 10.6701 -0.0 0.0 -0.0 -1.34657 1.14457 -2.43707 -17.4 -14.6519 78.7999 0.796987 -21.5442 0.151633 -5.43329 -0.222829 0.657565 -0.514336 11.4248 1.44724 -0.0 0.0 -0.0 11.3226 11.9749 -22.7376 -13.6751 23.1925 -59.2558 1.04326 27.3292 -0.253642 -23.8222 1.41693 -2.67417 -2.57617 -3.0611 15.9723 0.0 0.0 0.0 31.5589 -17.0984 -6.05634 -3.32656 0.1226 0.49573 -4.67263 30.0345 0.742112 -15.6172 0.0 0.0 -0.0 0.0 -0.0 3.33296 7.41694 3.17309 -27.0666 -0.145199 -4.11266 36.5849 8.57219 4.68705 -9.77787 0.0 0.0 0.0 0.0 0.0 
2469.19 709.725 -1112.67 -17.6338 50.1657 15.6723 4.69371 -0.0749529 0.114262 4.69372 -0.0820717 0.109261 4.69356 -0.0955273 0.0977148 4.69355 -0.0788962 0.111575 -8.90205 18.2217 7.4715 -8.94819 29.1005 11.6035 -0.0 0.0 -0.0 -1.40246 0.701917 -2.60826 -16.83 -15.1742 77.6882 0.803684 -21.7085 0.154102 -5.96741 -0.248085 0.72102 -0.556318 11.5853 1.24859 -0.0 0.0 -0.0 10.67 11.7318 -21.2839 -15.0065 24.0696 -61.479 0.873603 23.4007 -0.180923 -23.6135 1.39985 -2.6536 -2.40764 -2.75942 14.9616 0.0 0.0 0.0 31.5919 -17.0663 -5.69317 -7.14953 0.227663 1.07291 -1.8897 29.3356 0.297199 -14.4639 0.0 0.0 -0.0 0.0 -0.0 3.97114 7.74903 2.99884 -28.7656 -0.0893635 -4.36742 33.8425 4.86088 4.35809 -9.89899 0.0 0.0 0.0 0.0 0.0 
2434.48 716.768 -1118.51 -16.2275 49.9047 13.8415 4.72352 -0.0407922 0.254071 4.72356 -0.0568766 0.25096 4.72328 -0.0887658 0.24153 4.7232 -0.0495068 0.252517 -8.67389 18.5115 8.85757 -8.62868 28.6269 12.9397 -0.0 0.0 -0.0 -1.72344 1.15452 -3.15814 -16.8733 -14.4694 78.2173 0.793971 -21.4701 0.150528 -6.14168 -0.256453 0.741673 -0.484403 10.4296 1.21833 -0.0 0.0 -0.0 10.6116 10.9321 -21.1673 -16.9397 23.3346 -61.7593 0.666238 18.2648 -0.107101 -24.1471 1.44369 -2.70607 -2.1051 -1.10573 13.6825 0.0 0.0 0.0 30.797 -16.3837 -4.00563 -11.6272 0.301446 1.75586 7.0945 28.3106 -1.08509 -13.4085 0.0 0.0 -0.0 0.0 -0.0 4.38231 11.5946 3.39589 -30.4306 -0.0273322 -4.61541 32.5143 -3.23314 4.15516 -8.90228 0.0 0.0 0.0 0.0 0.0 
2404.78 729.358 -1122.21 -16.5358 49.7818 14.3687 4.69927 -0.119355 0.071013 4.69927 -0.123632 0.0632743 4.69914 -0.130779 0.0467473 4.69915 -0.121755 0.0668148 -8.67949 18.3628 8.17663 -8.67046 28.8204 12.2552 -0.0 0.0 -0.0 -1.33121 1.12213 -2.41087 -16.6932 -13.8571 77.8807 0.800736 -21.6362 0.153013 -6.86272 -0.291746 0.826855 -0.585388 10.2118 0.48065 -0.0 0.0 -0.0 10.2377 9.36779 -20.36 -18.9353 20.5455 -62.2769 0.511052 14.2067 -0.0636857 -24.2011 1.44815 -2.71136 -2.29172 -3.46157 13.8258 0.0 0.0 0.0 29.1392 -16.2679 -3.55793 -10.5173 0.288138 1.58609 1.54811 28.6824 -0.240687 -13.1844 0.0 0.0 -0.0 0.0 -0.0 5.24332 14.1355 3.74979 -31.6904 0.024384 -4.80181 33.147 -5.81665 4.21502 -9.07135 0.0 0.0 0.0 0.0 0.0 
2385.16 734.078 -1129.67 -17.3076 49.8845 14.834 4.88563 -0.0790707 0.093 4.88563 -0.0848282 0.08778 4.8855 -0.0952241 0.0763775 4.8855 -0.0819666 0.0904579 -9.48349 18.3193 8.19285 -9.54636 28.944 12.4624 -0.0 0.0 -0.0 -1.44308 1.43285 -2.57993 -16.6259 -13.4678 77.1389 0.801486 -21.6546 0.15329 -7.22294 -0.309779 0.869245 -0.688771 9.85931 -0.331941 -0.0 0.0 -0.0 9.99517 8.56384 -19.8353 -20.7063 19.6891 -63.5686 0.402013 11.2631 -0.0396413 -25.0062 1.51529 -2.7897 -2.11716 -3.38234 12.6776 0.0 0.0 0.0 28.7169 -17.3421 -2.89157 -12.5249 0.309803 1.89335 3.56053 27.971 -0.548453 -12.1878 0.0 0.0 -0.0 0.0 -0.0 6.58957 17.5736 3.15718 -32.5686 0.0628557 -4.93107 31.7138 -10.0288 4.07876 -9.14716 0.0 0.0 0.0 0.0 0.0 
2364.01 737.001 -1138.5 -16.8654 49.9131 14.3548 5.15868 -0.108096 0.278558 5.15872 -0.125603 0.271115 5.15809 -0.157596 0.253856 5.15802 -0.115526 0.275559 -10.0594 18.3239 8.21966 -10.1759 29.0872 12.6385 -0.0 0.0 -0.0 -1.70989 1.25651 -3.11675 -15.7517 -12.9206 75.5425 0.802425 -21.6776 0.153636 -7.36959 -0.317197 0.88647 -0.808565 9.62865 -1.19982 -0.0 0.0 -0.0 9.73814 7.47099 -19.2812 -22.0142 19.2182 -64.8914 0.34104 9.58926 -0.0286057 -25.5856 1.56429 -2.8455 -1.85267 -3.25947 10.9482 0.0 0.0 0.0 28.1957 -18.4885 -1.9559 -14.7481 0.321218 2.23424 4.72283 27.6568 -0.723955 -11.5625 0.0 0.0 -0.0 0.0 -0.0 7.89067 20.5255 2.82053 -33.3513 0.0988194 -5.04579 30.7216 -12.9923 3.99375 -9.3929 0.0 0.0 0.0 0.0 0.0 
2340.32 739.641 -1148.78 -14.841 49.2316 11.7886 5.65808 -0.0312158 0.511024 5.65823 -0.0636699 0.508002 5.65752 -0.120556 0.497581 5.65718 -0.0404607 0.510375 -14.2745 18.2475 11.486 -14.5279 28.0034 16.7569 -0.0 0.0 -0.0 -1.77618 0.940332 -3.2919 -14.6368 -11.3624 73.7906 0.77487 -20.9991 0.14361 -7.77323 -0.337843 0.933785 -1.34538 10.0924 -4.4378 -0.0 0.0 -0.0 8.96875 7.5479 -17.6309 -24.0238 19.4701 -68.0678 0.258462 7.29631 -0.0164792 -27.1593 1.7002 -2.99453 -1.06636 -3.04268 5.78743 0.0 0.0 0.0 26.6192 -18.684 -0.283826 -18.7973 0.308012 2.85524 10.0552 28.8583 -1.53023 -8.88829 0.0 0.0 -0.0 0.0 -0.0 10.4452 22.3377 3.59649 -41.9535 0.595705 -6.26957 31.9926 -14.3567 4.14188 -7.69064 0.0 0.0 0.0 0.0 0.0 
2322.16 745.188 -1156.32 -13.5095 47.5965 9.95525 5.58769 0.023896 0.654198 5.58793 -0.0177798 0.654392 5.58749 -0.0922604 0.6481 5.5869 0.0112506 0.654537 -15.8128 18.1187 10.9528 -16.2721 28.4818 16.6791 -0.0 0.0 -0.0 -1.64447 0.448124 -3.11206 -13.4475 -10.557 71.946 0.785685 -21.2662 0.147509 -7.26264 -0.311783 0.87391 -1.52233 9.68087 -5.76545 -0.0 0.0 -0.0 8.45022 7.34166 -16.5306 -24.7657 20.1738 -69.5771 0.230904 6.52548 -0.0131632 -28.2021 1.79251 -3.09123 -0.791969 -3.00804 3.98057 0.0 0.0 0.0 25.0735 -19.0331 0.573091 -21.0197 0.282124 3.19524 12.0357 28.5407 -1.81643 -8.35327 0.0 0.0 -0.0 0.0 -0.0 14.9584 24.1092 2.97637 -47.1269 0.981255 -6.96558 32.5604 -16.0677 4.22201 -7.11184 0.0 0.0 0.0 0.0 0.0 
2299.74 745.496 -1162.18 -13.3399 46.5309 9.31765 6.13192 0.056289 0.742507 6.13222 0.00892866 0.744583 6.13198 -0.0689631 0.741437 6.13122 0.0489952 0.743023 -17.9379 17.4906 10.0584 -18.6475 28.2646 16.271 -0.0 0.0 -0.0 -1.59049 1.48741 -2.85361 -12.4613 -11.0045 70.04 0.790925 -21.3952 0.149415 -7.14137 -0.305673 0.859657 -1.37048 8.85126 -5.16608 -0.0 0.0 -0.0 7.5881 8.08167 -14.6944 -26.8566 20.074 -71.4676 0.259532 7.3262 -0.0166154 -29.4347 1.90388 -3.20335 -0.353846 -5.40962 0.0584927 0.0 0.0 0.0 22.137 -11.2794 0.586998 -20.6297 0.287621 3.13565 14.4244 25.7263 -2.12231 -6.78989 0.0 0.0 -0.0 0.0 -0.0 17.9976 27.6193 1.12444 -51.901 1.39173 -7.57518 30.094 -18.7274 3.99372 -5.7128 0.0 0.0 0.0 0.0 0.0 
2279.94 747.756 -1159.69 -12.9534 46.338 8.79193 6.37483 -0.049518 0.854188 6.37523 -0.10377 0.849306 6.37322 -0.188493 0.834603 6.37225 -0.0543225 0.853896 -18.8472 16.2709 7.55025 -19.7195 27.3981 13.7668 -0.0 0.0 -0.0 -1.44548 1.58569 -2.56217 -11.5289 -11.5751 68.5372 0.832758 -22.4171 0.165023 -6.64949 -0.281197 0.801711 -1.0702 7.09358 -4.00831 -0.0 0.0 -0.0 7.0718 8.5717 -13.5928 -28.7099 19.6905 -71.4045 0.334888 9.41943 -0.0275901 -29.8139 1.93862 -3.23736 -0.23474 -5.52942 -0.772445 0.0 0.0 0.0 21.1102 -8.44646 1.5668 -20.8852 0.284067 3.17469 16.4531 25.7474 -2.4033 -5.74608 0.0 0.0 -0.0 0.0 -0.0 21.105 29.0364 -0.675924 -53.1948 1.51165 -7.73441 29.4422 -22.256 3.98264 -4.79798 0.0 0.0 0.0 0.0 0.0 
2263.13 751.237 -1164.31 -13.2407 44.6825 8.29447 6.60985 -0.161044 0.901333 6.61028 -0.218069 0.88926 6.60639 -0.302725 0.864117 6.60538 -0.16246 0.901079 -20.679 16.4746 8.80643 -21.6608 27.4594 15.5367 -0.0 0.0 -0.0 -1.49971 1.53055 -2.6738 -11.226 -11.6891 66.8669 0.822171 -22.1599 0.161008 -7.04255 -0.300715 0.848031 -1.33313 7.3098 -5.62627 -0.0 0.0 -0.0 6.86841 9.52349 -13.1289 -29.8082 20.1466 -71.6926 0.311792 8.7803 -0.0239373 -30.4794 2.00015 -3.2965 0.16803 -5.84075 -3.54038 0.0 0.0 0.0 19.0654 -5.72709 2.03658 -18.4687 0.310719 2.80489 17.8959 22.1824 -2.55188 -5.04586 0.0 0.0 -0.0 0.0 -0.0 22.4304 29.752 -0.589263 -53.8808 1.57669 -7.81774 30.6192 -21.0223 4.0916 -4.32344 0.0 0.0 0.0 0.0 0.0 
2254.09 750.844 -1163.38 -14.4326 43.0329 8.97561 6.95872 -0.137487 0.876042 6.95912 -0.192951 0.865519 6.95569 -0.270289 0.844571 6.95472 -0.133518 0.876656 -21.1517 16.4056 8.64629 -22.1905 27.479 15.5086 -0.0 0.0 -0.0 -1.36493 1.49495 -2.42163 -10.0914 -11.9846 65.0699 0.802829 -21.6875 0.153786 -6.58582 -0.278065 0.794195 -1.36571 6.6332 -6.14776 -0.0 0.0 -0.0 6.32232 9.80857 -11.9666 -29.7139 21.03 -72.6036 0.303335 8.54571 -0.0226634 -30.7289 2.0234 -3.31849 0.146305 -6.70457 -3.75089 0.0 0.0 0.0 18.6035 -2.72058 1.81338 -17.2956 0.318029 2.62506 18.1191 20.9677 -2.56754 -4.89616 0.0 0.0 -0.0 0.0 -0.0 25.9345 26.9509 -1.1386 -52.7179 1.46702 -7.67603 30.4698 -23.5538 4.12725 -3.65089 0.0 0.0 0.0 0.0 0.0 
